<svg
    xmlns="http://www.w3.org/2000/svg"
    width="125"
    height="24"
    fill="none"
    viewBox="0 0 125 24"
>
    <path
        fill="#334155"
        fillRule="evenodd"
        d="M79.566 17.439c-5.57-4.099-6.439-3.771-17.44 6.561 10.333-11 10.66-11.866 6.562-17.439 5.57 4.099 6.439 3.771 17.439-6.561-10.332 11-10.66 11.866-6.561 17.439zm41.703-.063c-.614 0-1.087-.168-1.418-.506-.33-.337-.495-.8-.495-1.385v-7.34h-3.233V6.626h3.233V2.803h1.735v3.824h3.517v1.517h-3.517v7.08c0 .44.211.662.638.662h2.396v1.494h-2.859l.003-.004zM20.602 4.046v12.243h2.264V4.046h-2.264zM44.116 16.04v-2.35l3.329-1.263-3.329-1.263v-2.35l6.485 2.417h.017v2.416H50.6l-6.485 2.403v-.01zM41.33 5.49l-3.815 12.242h2.265L43.594 5.49H41.33zM6.505 11.155v-2.35L.013 11.217H0v2.413h.013l6.492 2.416v-2.353l-3.329-1.27 3.329-1.265v-.004zm11.707-.083c.037-.955-.3-1.89-.945-2.598l.003.003a3.254 3.254 0 00-2.485-1.001 3.635 3.635 0 00-2.694 1.028V7.73H9.827v8.561h2.264v-3.791c0-1.97.707-2.952 2.125-2.952a1.57 1.57 0 011.26.549c.33.41.499.932.472 1.457v4.734h2.264v-5.216zm14.828 5.216h1.884l3.177-8.578h-2.42L33.9 12.858 32.062 7.71h-1.765l-1.838 5.13-1.781-5.13h-2.42l3.173 8.578h1.888l1.87-5.041 1.851 5.04zm28.324 1.395c-1.084 0-2.036-.232-2.86-.695a4.864 4.864 0 01-1.913-1.946c-.453-.837-.681-1.802-.681-2.902v-.265c0-1.114.228-2.089.68-2.925a4.873 4.873 0 011.891-1.947c.807-.463 1.73-.694 2.77-.694 1.041 0 1.904.215 2.68.648a4.593 4.593 0 011.825 1.857c.44.807.662 1.752.662 2.836v.79h-8.773c.043 1.157.417 2.063 1.12 2.714.705.651 1.584.978 2.638.978.922 0 1.633-.211 2.132-.638.5-.426.88-.932 1.144-1.517l1.494.724a6.534 6.534 0 01-.912 1.362c-.39.453-.893.836-1.517 1.144-.625.307-1.419.462-2.387.462l.007.014zm-3.692-6.66h6.99c-.06-.996-.4-1.772-1.021-2.33-.625-.556-1.418-.837-2.386-.837-.969 0-1.789.277-2.42.836-.631.559-1.018 1.335-1.167 2.33h.004zM82.6 6.626v15.145l.004.004h1.735v-6.089h.307c.175.324.423.638.747.946.324.307.744.558 1.266.757.52.198 1.154.297 1.9.297.94 0 1.796-.222 2.562-.661.767-.44 1.382-1.078 1.835-1.914.453-.836.68-1.824.68-2.968v-.284c0-1.157-.23-2.149-.693-2.969-.463-.82-1.078-1.454-1.848-1.9a4.975 4.975 0 00-2.538-.671c-1.114 0-1.984.211-2.605.638-.625.426-1.074.909-1.352 1.45h-.307v-1.78H82.6zm8.21 8.449c-.693.714-1.599 1.067-2.713 1.067-1.097 0-2.003-.357-2.714-1.067-.71-.71-1.067-1.703-1.067-2.978v-.199c0-1.275.357-2.267 1.067-2.978.711-.71 1.6-1.067 2.714-1.067 1.114 0 2.016.357 2.714 1.067.697.71 1.044 1.703 1.044 2.978v.199c0 1.275-.35 2.267-1.044 2.978zm10.363 2.608c-1.084 0-2.036-.232-2.859-.695a4.866 4.866 0 01-1.914-1.946c-.453-.837-.68-1.802-.68-2.902v-.265c0-1.114.228-2.089.68-2.925a4.873 4.873 0 011.891-1.947c.806-.463 1.729-.694 2.77-.694s1.904.215 2.68.648a4.595 4.595 0 011.825 1.857c.44.807.661 1.752.661 2.836v.79h-8.772c.043 1.157.416 2.063 1.12 2.714.704.651 1.583.978 2.638.978.922 0 1.633-.211 2.132-.638a4.3 4.3 0 001.143-1.517l1.494.724a6.509 6.509 0 01-.912 1.362c-.39.453-.892.836-1.517 1.144-.625.307-1.418.462-2.386.462l.006.014zm-3.692-6.66h6.991c-.06-.996-.4-1.772-1.021-2.33-.625-.556-1.418-.837-2.387-.837-.968 0-1.788.277-2.42.836-.63.559-1.017 1.335-1.166 2.33h.003zm11.304-4.397v10.75h1.735v-6.552c0-.909.238-1.58.714-2.013.476-.433 1.104-.648 1.881-.648h1.385V6.581h-1.276c-.644 0-1.163.11-1.56.33-.397.222-.687.566-.879 1.035h-.308V6.627h-1.692z"
        clipRule="evenodd"
    />
</svg>